<svg width="40" height="40" viewBox="0 0 40 40" fill="none" xmlns="http://www.w3.org/2000/svg">
<rect width="40" height="40" rx="10" fill="#DF672D"/>
<path d="M16.0128 23.824C19.4048 21.4027 21.1008 19.4773 21.1008 18.048C21.1008 17.1733 20.7221 16.736 19.9648 16.736C19.5381 16.736 19.2234 16.8853 19.0208 17.184C18.8288 17.4827 18.7221 17.9467 18.7008 18.576H16.0288C16.0928 17.2 16.5088 16.1653 17.2768 15.472C18.0448 14.7787 19.0154 14.432 20.1888 14.432C21.4154 14.432 22.3381 14.7413 22.9568 15.36C23.5861 15.9787 23.9008 16.784 23.9008 17.776C23.9008 18.8747 23.4794 19.952 22.6368 21.008C21.7941 22.0533 20.7861 22.9387 19.6128 23.664H24.0768V25.872H16.0128V23.824Z" fill="white"/>
</svg>
