<svg width="40" height="40" viewBox="0 0 40 40" fill="none" xmlns="http://www.w3.org/2000/svg">
<rect width="40" height="40" rx="10" fill="#DF672D"/>
<path d="M19.9883 14.192C20.7776 14.192 21.4549 14.3307 22.0203 14.608C22.5856 14.8747 23.0123 15.248 23.3003 15.728C23.5989 16.1973 23.7483 16.7307 23.7483 17.328C23.7483 18.064 23.5563 18.656 23.1723 19.104C22.7989 19.552 22.3296 19.8347 21.7643 19.952V20.032C23.2256 20.5013 23.9563 21.4133 23.9563 22.768C23.9563 23.4187 23.8069 24 23.5083 24.512C23.2096 25.0133 22.7723 25.408 22.1963 25.696C21.6309 25.9733 20.9483 26.112 20.1483 26.112C18.8469 26.112 17.8123 25.792 17.0443 25.152C16.2869 24.512 15.8763 23.536 15.8123 22.224H18.4843C18.5056 22.7253 18.6443 23.12 18.9003 23.408C19.1563 23.696 19.5296 23.84 20.0203 23.84C20.4149 23.84 20.7243 23.7227 20.9483 23.488C21.1829 23.2533 21.3003 22.9493 21.3003 22.576C21.3003 21.648 20.6283 21.184 19.2843 21.184H18.7723V18.96H19.2682C20.4736 18.9813 21.0763 18.5493 21.0763 17.664C21.0763 17.28 20.9696 16.9867 20.7563 16.784C20.5536 16.5707 20.2763 16.464 19.9243 16.464C19.5403 16.464 19.2363 16.5973 19.0123 16.864C18.7883 17.12 18.6603 17.4667 18.6283 17.904H15.9563C16.0096 16.7093 16.3829 15.792 17.0763 15.152C17.7696 14.512 18.7403 14.192 19.9883 14.192Z" fill="white"/>
</svg>
