<svg xmlns="http://www.w3.org/2000/svg" width="592" height="424" fill="none"><g clip-path="url(#a)"><path fill="#E16A2D" d="M75.563 67.498c18.605 0 33.687-15.11 33.687-33.749C109.25 15.11 94.168 0 75.563 0 56.96 0 41.877 15.11 41.877 33.75c0 18.638 15.082 33.748 33.686 33.748Z"/><path fill="#F2F2F2" d="M471.228 345.379a49.567 49.567 0 0 1-32.067-11.778 49.74 49.74 0 0 1-16.876-29.75l-.04-.245.158-.19a47.636 47.636 0 0 0 6.584-10.391 33.98 33.98 0 0 1-6.474 5.503l-.794.529-.046-.953a50.392 50.392 0 0 1 1.84-16.158c5.76-20.283 6.745-42.065 2.928-64.739a71.126 71.126 0 0 1-.98-11.765 70.216 70.216 0 0 1 16.715-45.458 69.974 69.974 0 0 1 42.138-23.76 69.899 69.899 0 0 1 47.459 9.271 70.119 70.119 0 0 1 30.142 37.881l.159.482-.47.19a36.392 36.392 0 0 1-11.084 2.755c4.033.93 8.17 1.328 12.306 1.185l.437-.016.106.426a70.535 70.535 0 0 1 2.087 17.044l-.003.622c-.013 4.399.9 8.753 2.679 12.775a31.283 31.283 0 0 0 7.645 10.571 49.701 49.701 0 0 1 12.289 17.366 49.783 49.783 0 0 1-1.274 41.567 49.694 49.694 0 0 1-13.33 16.577l-.259.209-.303-.138c-6.389-2.905-11.044-6.069-14.447-9.845a48.459 48.459 0 0 0 9.041 13.128l.481.496-.597.349a49.507 49.507 0 0 1-24.992 6.761h-.25l-.266-.001c-13.433 0-26.165 5.204-34.97 14.302a49.983 49.983 0 0 1-16.306 11.204 49.896 49.896 0 0 1-19.366 3.994Z"/><path fill="#3F3D56" d="M453.67 423.699a.893.893 0 0 1-.886-.771c-.038-.267-3.764-27.192-.417-62.977 3.09-33.047 13.016-80.648 42.748-119.741a.882.882 0 0 1 .593-.346.907.907 0 0 1 .662.176.89.89 0 0 1 .345.593.898.898 0 0 1-.175.664c-29.476 38.756-39.321 86.007-42.39 118.822-3.328 35.576.369 62.291.407 62.557a.89.89 0 0 1-.211.714.895.895 0 0 1-.676.309Z"/><path fill="#3F3D56" d="M468.533 291.902a.899.899 0 0 1-.853-1.174.906.906 0 0 1 .326-.449 123.31 123.31 0 0 1 27.246-13.895c15.032-5.514 37.89-10.512 61.423-3.009a.9.9 0 0 1 .621.779.905.905 0 0 1-.481.873.903.903 0 0 1-.683.058c-23.051-7.35-45.495-2.434-60.265 2.984a121.287 121.287 0 0 0-26.808 13.662.896.896 0 0 1-.526.171Z"/><path fill="#F2F2F2" d="M104.731 357.074c-8.354-.015-21.505.66-28.67 4.45a59.372 59.372 0 0 0-14.855 11.149 71.5 71.5 0 0 0-4.745 5.437 87.179 87.179 0 0 1-1.394-43.413 4.89 4.89 0 0 0-2.035-5.167 4.861 4.861 0 0 0-5.544.089c-11.638 8.503-19.078 22.912-20.888 37.49-2.305 18.573 3.123 37.29 10.669 54.418l-.003.009c-.014.077-.035.161-.056.245-.028.126-.062.251-.09.377-.05.217-.105.441-.154.658l1.222-.056c.07.035.14.063.209.098h30.6c.405-.443.783-.91 1.13-1.399 3.387-4.651 4.79-10.953 6.5-16.64a84.91 84.91 0 0 1 4.636-12.016 87.3 87.3 0 0 1 18.927-25.957 36.9 36.9 0 0 1 .768-.706c1.316-1.213 3.356-2.835 5.349-4.357a2.622 2.622 0 0 0-1.576-4.709Z"/><path fill="#9E616A" d="M311.333 68.018a8.18 8.18 0 0 1-.279 6.178 8.15 8.15 0 0 1-4.523 4.21 7.97 7.97 0 0 1-1.364.376l-4.624 28.368-10.848-10.035 6.055-25.4a8.199 8.199 0 0 1 1.742-5.965 8.17 8.17 0 0 1 5.42-3.023 7.95 7.95 0 0 1 5.136 1.167 7.977 7.977 0 0 1 3.285 4.124Z"/><path fill="#2CAAC2" d="M231.277 132.296s8.42-11.145 38.971-10.839l17.341-6.313 3.963-36.396 13.871 3.309-1.982 44.999-29.723 17.205-38.97 7.941-3.471-19.906Z"/><path fill="#9E616A" d="m184.332 406.675 8.004 3.416L209.3 380.79l-11.812-5.043-13.156 30.928ZM250.469 414.262h8.699l4.139-33.619-12.84.001.002 33.618Z"/><path fill="#000919" d="m250.163 423.354 26.752-.001v-.339a10.447 10.447 0 0 0-3.05-7.376 10.407 10.407 0 0 0-7.363-3.056l-4.887-3.714-9.118 3.715h-2.335l.001 10.771ZM179.465 412.495l24.61 10.507.133-.312a10.453 10.453 0 0 0 .081-7.984 10.426 10.426 0 0 0-5.578-5.703l-3.042-5.336-9.841-.164-2.148-.917-4.215 9.909ZM259.001 215.298l13.222 80.657-3.599 12.019 4.722 8.513-6.934 74.758 2.815 6.208-7.864 4.859h-16.002l-.849-67.679-3.953-9.937v-5.476l-8.046-41.27-1.482 47.207-2.34 9.952 1.966 7.087-2.569 4.964-22.016 47.362h-17.943l1.388-10.711c-3.215-1.631 4.826-6.397 5.599-9.923l-2.642-5.955 2.642-11.25 2.423-21.982-2.555-46.401 1.202-62.485 20.99-16.081 41.825 5.564Z"/><path fill="#9E616A" d="M226.805 109.078c10.014 0 18.133-8.133 18.133-18.166 0-10.034-8.119-18.167-18.133-18.167-10.015 0-18.133 8.133-18.133 18.167 0 10.033 8.118 18.166 18.133 18.166ZM195.296 248.755a7.163 7.163 0 0 0 .435-6.033 7.154 7.154 0 0 0-4.339-4.208l-.042-25.405-10.989 7.287 1.726 23.008a7.193 7.193 0 0 0 4.232 8.554 7.166 7.166 0 0 0 8.977-3.203Z"/><path fill="#2CAAC2" d="m194.28 136.347-4.909-4.741-3.606 2.608s-3.548 4.265-6.386 17.062c-2.839 12.797 0 83.179 0 83.179l15.611-2.133-2.129-36.968 6.387-31.281-4.968-27.726Z"/><path fill="#2CAAC2" d="m187.031 132.763 16.539-7.915 11.229-10.435 20.476-.153 6.605 8.602 17.438 5.935-2.907 60.24 1.982 4.633s-1.38 1.249-2.011 1.948c-.631.699.871 6.549.871 6.549l.847 6.364-2.349 1.682 3.054 3.615.759 5.697s-53.314-13.276-63.388 8.717c-.532 1.162.779-10.194.779-10.194l1.31-8.314-1.3-7.462-1.982-1.985 3.324-3.33-2.131-15.798-9.145-48.396Z"/><path fill="#FFB6B6" d="M359.663 406.317h-9.815l-4.67-37.926h14.485v37.926Z"/><path fill="#000919" d="M364.843 423.354h-7.038l-1.256-6.657-3.218 6.657h-18.668a4.19 4.19 0 0 1-2.487-.818 4.204 4.204 0 0 1-1.48-4.757 4.213 4.213 0 0 1 1.583-2.089l14.907-10.314v-6.731l15.68.938 1.977 23.771Z"/><path fill="#FFB6B6" d="m455.113 386.808-8.442 5.016-23.327-30.235 12.459-7.402 19.31 32.621Z"/><path fill="#000919" d="m468.243 398.814-6.054 3.597-4.47-5.084.622 7.371-16.057 9.54a4.187 4.187 0 0 1-4.949-.493 4.206 4.206 0 0 1-1.004-4.88l7.571-16.491-3.427-5.789 13.964-7.206 13.804 19.435Z"/><path fill="#FFB6B6" d="m355.281 163.816-4.769 30.462 45.309.597-5.962-29.267-34.578-1.792Z"/><path fill="#000919" d="m350.337 193.893-12.941 31.444-.943 84.089 11.044 80.287h12.221l5.008-78.978 12.316-54.041 12.146 56.521 37.769 55.322h18.559l-34.121-60.963-3.948-66.409s2.461-28.173-10.135-44.797l-3.066-8.874-43.909 6.399Z"/><path fill="#FFB6B6" d="M413.727 216.85a8.956 8.956 0 0 1-6.593-8.697 8.979 8.979 0 0 1 .862-3.786l-19.275-62.96 14.177-2.815 17.63 61.713a9.006 9.006 0 0 1 4.11 4.9 9.029 9.029 0 0 1-.176 6.399 9.003 9.003 0 0 1-4.373 4.667 8.973 8.973 0 0 1-6.362.579Z"/><path fill="#2CAAC2" d="m390.861 185.933-33.875-15.825a4.087 4.087 0 0 1-3.87-3.081c-1.675-6.642-5.359-14.024-3.405-31.264a25.177 25.177 0 0 1 3.089-9.494 25.125 25.125 0 0 1 6.534-7.54 25.072 25.072 0 0 1 18.899-4.959 25.083 25.083 0 0 1 9.853 3.636 25.117 25.117 0 0 1 7.507 7.355 25.184 25.184 0 0 1 3.364 20.296c-3.931 14.958-3.51 30.953-3.958 37.101a4.075 4.075 0 0 1-4.051 3.776l-.087-.001Z"/><path fill="#FFB6B6" d="M317.924 80.193a8.752 8.752 0 0 1-.661 1.214l16.198 38.051 9.957 1.224.12 15.295-17.835-.45a6.67 6.67 0 0 1-6.272-4.966l-12.006-45.5a8.739 8.739 0 0 1-4.318-2.91 8.77 8.77 0 0 1-.712-9.928 8.742 8.742 0 0 1 3.858-3.499 8.724 8.724 0 0 1 9.79 1.695 8.76 8.76 0 0 1 1.881 9.774Z"/><path fill="#2CAAC2" d="M335.093 118.102a3.742 3.742 0 0 1 2.985-.909l18.634 2.527a10.396 10.396 0 0 1 7.387 2.947 10.436 10.436 0 0 1 .23 14.721 10.39 10.39 0 0 1-7.29 3.178l-18.625 3.008a3.732 3.732 0 0 1-3.007-.833 3.75 3.75 0 0 1-1.335-2.825l-.242-18.956a3.756 3.756 0 0 1 1.263-2.858ZM387.858 157.355a3.75 3.75 0 0 1-1.905-2.475l-4.232-18.356a10.44 10.44 0 0 1 .14-7.964 10.412 10.412 0 0 1 5.711-5.54 10.392 10.392 0 0 1 7.949.117 10.415 10.415 0 0 1 5.546 5.707l9.397 16.388a3.756 3.756 0 0 1-1.879 5.363l-17.612 6.932a3.724 3.724 0 0 1-3.115-.172Z"/><path fill="#FFB6B6" d="M387.106 107.297c9.284-5.084 12.696-16.746 7.621-26.047-5.075-9.301-16.715-12.72-25.999-7.635-9.284 5.084-12.696 16.746-7.621 26.047 5.075 9.302 16.715 12.72 25.999 7.635Z"/><path fill="#000919" d="m364.739 82.74-12.331-.07c-.293-2.806.954-5.598 2.771-7.754 1.816-2.157 4.169-3.78 6.491-5.377 2.358-1.62 4.8-3.279 7.603-3.845 2.349-.475 4.778-.145 7.151.185l9.442 1.316c3.455.481 7.07 1.025 9.876 3.101 3.795 2.808 2.825 9.288 6.466 12.292 10.998 9.074 6.545 16.999 6.75 25.27l-39.868 4.189c-1.442.249-2.92.206-4.345-.126-1.396-.428-2.676-1.585-2.778-3.044-.115-1.629 1.175-2.962 2.222-4.213a19.713 19.713 0 0 0 1.695-22.259l-1.145.335ZM222.165 108.189l-.231-.515c.029.001.059.006.088.006l.143.509ZM208.166 73.571a5.042 5.042 0 0 1 3.162-1.37c1.172.039 2.361 1.1 2.118 2.25a18.645 18.645 0 0 1 9.683-8.3 18.602 18.602 0 0 1 12.742-.125c2.914 1.03 5.772 3.09 6.442 6.114.065.793.301 1.563.692 2.256a2.57 2.57 0 0 0 2.737.695l.028-.009a.855.855 0 0 1 1.129.717.867.867 0 0 1-.093.495l-.825 1.54c1.04.233 2.12.21 3.148-.066a.854.854 0 0 1 1.073.843.854.854 0 0 1-.164.491 14.921 14.921 0 0 1-11.897 6.127c-3.294-.02-6.623-1.158-9.829-.399a8.534 8.534 0 0 0-5.737 4.63 8.563 8.563 0 0 0-.006 7.379c-.985-1.08-2.89-.824-3.897.234a5.363 5.363 0 0 0-1.167 4.097 19.031 19.031 0 0 0 1.948 6.381 19.015 19.015 0 0 1-10.788-3.768 19.072 19.072 0 0 1-6.693-9.275 19.105 19.105 0 0 1-.189-11.444 19.082 19.082 0 0 1 6.383-9.493Z"/><path fill="#CCC" d="M568.439 424H.86a.787.787 0 0 1-.554-1.344.787.787 0 0 1 .554-.232H568.44a.795.795 0 0 1 .557.23.782.782 0 0 1 .171.86.793.793 0 0 1-.728.486Z"/><path fill="#F0F0F0" d="M136.355 7.855c-16.326-2.21-34.965 6.63-39.196 22.581a14.287 14.287 0 0 0-5.536-6.919 14.245 14.245 0 0 0-16.807.864 14.294 14.294 0 0 0-4.8 7.45l1.869 1.342a245.448 245.448 0 0 0 106.118-.48c-11.357-11.958-25.323-22.627-41.648-24.838ZM66.339 52.854c-16.326-2.21-34.965 6.63-39.196 22.581a14.286 14.286 0 0 0-5.536-6.919A14.245 14.245 0 0 0 4.8 69.38 14.294 14.294 0 0 0 0 76.83l1.87 1.342a245.448 245.448 0 0 0 106.117-.48C96.631 65.733 82.665 55.064 66.339 52.853Z"/></g><defs><clipPath id="a"><path fill="#fff" d="M0 0h592v424H0z"/></clipPath></defs></svg>